<svg id="Layer_1" data-name="Layer 1" xmlns="http://www.w3.org/2000/svg" viewBox="0 0 519.82 319"><defs><style>.cls-1{fill:#b3d89c;}.cls-2{fill:#d0efb1;}.cls-3{fill:#ff66d8;}.cls-4{fill:#313d40;}.cls-5{fill:#7ce3ff;}.cls-6{fill:#2ed0fc;}.cls-7{fill:#ff8e9e;}</style></defs><title>logo-design</title><path class="cls-1" d="M239.08,134.75a40.49,40.49,0,0,0-40.5,40.49v78H81.06v81H198.58v78a40.5,40.5,0,0,0,81,0v-237a40.49,40.49,0,0,0-40.49-40.49Z" transform="translate(-40.57 -134.25)"/><path class="cls-2" d="M81.06,452.75c-22.36,0-40.49-19.29-40.49-43.09V177.84c0-23.8,18.13-43.09,40.49-43.09s40.49,19.29,40.49,43.09V409.66C121.55,433.46,103.43,452.75,81.06,452.75Z" transform="translate(-40.57 -134.25)"/><path class="cls-3" d="M108.9,290.86c-10.44,0-18.91,6.69-18.93,15S98.4,320.93,108.83,321s18.91-6.7,18.93-15S119.33,290.88,108.9,290.86Z" transform="translate(-40.57 -134.25)"/><ellipse class="cls-3" cx="211.23" cy="306.1" rx="15.05" ry="18.89" transform="translate(-135.86 382.46) rotate(-89.89)"/><path class="cls-4" d="M120.06,282.22a4.8,4.8,0,0,0-4.8,4.8v7.68a4.8,4.8,0,1,0,9.6,0V287a4.8,4.8,0,0,0-4.8-4.8Z" transform="translate(-40.57 -134.25)"/><path class="cls-4" d="M200,282.22a4.8,4.8,0,0,0-4.8,4.8v7.68a4.8,4.8,0,1,0,9.6,0V287a4.8,4.8,0,0,0-4.8-4.8Z" transform="translate(-40.57 -134.25)"/><path class="cls-4" d="M178.63,294.48a4.79,4.79,0,0,0-4.8,4.79,4.45,4.45,0,1,1-8.9,0,4.8,4.8,0,0,0-9.6,0,4.45,4.45,0,1,1-8.9,0,4.8,4.8,0,0,0-9.6,0,14.06,14.06,0,0,0,23.3,10.57,14.06,14.06,0,0,0,23.3-10.57,4.79,4.79,0,0,0-4.8-4.79Z" transform="translate(-40.57 -134.25)"/><path class="cls-5" d="M519.77,134.25H481a59.44,59.44,0,0,0-58.77,59.44V443.34h33a40.55,40.55,0,0,0,14-30.71V215.49h50.52a40.62,40.62,0,0,0,0-81.24Z" transform="translate(-40.57 -134.25)"/><path class="cls-6" d="M428.63,393.8V193.69a59.44,59.44,0,0,1,58.77-59.44H337.49a40.62,40.62,0,0,0,0,81.24H388V412.63a40.61,40.61,0,0,0,67.2,30.7,59.36,59.36,0,0,1-26.58-49.53Z" transform="translate(-40.57 -134.25)"/><ellipse class="cls-7" cx="337" cy="54.79" rx="18.84" ry="15"/><ellipse class="cls-7" cx="439.12" cy="54.79" rx="18.84" ry="15"/><path class="cls-4" d="M388.55,162.08a4.81,4.81,0,0,0-4.82,4.81v7.7a4.82,4.82,0,1,0,9.63,0v-7.7A4.81,4.81,0,0,0,388.55,162.08Z" transform="translate(-40.57 -134.25)"/><path class="cls-4" d="M468.71,162.08a4.81,4.81,0,0,0-4.81,4.81v7.7a4.82,4.82,0,1,0,9.63,0v-7.7A4.81,4.81,0,0,0,468.71,162.08Z" transform="translate(-40.57 -134.25)"/><path class="cls-4" d="M442.36,170.74a4.81,4.81,0,0,0-6.79.46,9.18,9.18,0,0,1-13.88,0,4.82,4.82,0,0,0-7.26,6.33,18.84,18.84,0,0,0,28.4,0A4.81,4.81,0,0,0,442.36,170.74Z" transform="translate(-40.57 -134.25)"/></svg>